<?xml version="1.0" standalone="no"?>
<!DOCTYPE svg PUBLIC "-//W3C//DTD SVG 20010904//EN"
 "http://www.w3.org/TR/2001/REC-SVG-20010904/DTD/svg10.dtd">
<svg version="1.0" xmlns="http://www.w3.org/2000/svg"
 width="960.000000pt" height="960.000000pt" viewBox="0 0 960.000000 960.000000"
 preserveAspectRatio="xMidYMid meet">
<metadata>
Created by potrace 1.14, written by Peter Selinger 2001-2017
</metadata>
<g transform="translate(0.000000,960.000000) scale(0.100000,-0.100000)"
fill="#000000" stroke="none">
<path d="M3278 8508 l-1518 -1091 0 -2801 0 -2801 838 -838 c460 -460 840
-837 843 -837 3 0 4 118 2 263 -11 975 -33 5611 -26 5617 4 4 317 260 696 569
l687 562 682 -558 c375 -307 688 -563 696 -569 12 -9 12 -391 -2 -2685 -9
-1471 -17 -2792 -19 -2936 -2 -145 -1 -263 2 -263 3 0 383 377 843 837 l838
838 0 2801 0 2801 -1520 1091 c-836 601 -1521 1092 -1522 1091 -2 0 -686 -491
-1520 -1091z"/>
<path d="M3690 3878 l0 -973 555 -333 555 -333 555 333 555 333 0 973 c0 535
-3 971 -7 969 -5 -2 -251 -150 -548 -328 -297 -178 -547 -324 -555 -323 -8 0
-258 146 -555 324 -297 177 -543 325 -547 327 -5 2 -8 -434 -8 -969z"/>
</g>
</svg>
